<?xml version="1.0" standalone="no"?>
<!DOCTYPE svg PUBLIC "-//W3C//DTD SVG 20010904//EN"
 "http://www.w3.org/TR/2001/REC-SVG-20010904/DTD/svg10.dtd">
<svg version="1.0" xmlns="http://www.w3.org/2000/svg"
 width="259.000000pt" height="259.000000pt" viewBox="0 0 259.000000 259.000000"
 preserveAspectRatio="xMidYMid meet">
<metadata>
Created by potrace 1.11, written by Peter Selinger 2001-2013
</metadata>
<g transform="translate(0.000000,259.000000) scale(0.100000,-0.100000)"
fill="#000000" stroke="none">
<path d="M1145 2489 c-27 -4 -72 -10 -100 -14 -27 -4 -60 -11 -72 -16 -13 -5
-23 -7 -23 -4 0 10 -180 -58 -261 -99 -135 -67 -222 -130 -328 -235 -106 -105
-118 -120 -173 -202 -73 -112 -148 -294 -164 -399 -3 -19 -9 -54 -14 -77 -10
-58 -4 -276 10 -343 6 -30 13 -66 16 -79 3 -13 9 -32 15 -43 5 -10 8 -18 5
-18 -6 0 40 -113 76 -185 171 -338 539 -593 953 -661 64 -10 336 -13 385 -4
25 4 74 13 110 20 288 53 590 238 767 470 118 155 173 279 229 515 10 44 13
286 4 337 -5 24 -11 59 -14 78 -10 65 -58 195 -104 284 -61 120 -141 224 -245
323 -201 190 -434 301 -732 349 -60 9 -283 12 -340 3z"/>
</g>
</svg>
